<mxfile host="app.diagrams.net" modified="2021-11-20T08:05:45.922Z" agent="5.0 (Macintosh; Intel Mac OS X 10_15_6) AppleWebKit/537.36 (KHTML, like Gecko) Chrome/95.0.4638.69 Safari/537.36" etag="iIcrgRwWm_9bK0a7EaBa" version="15.7.4" type="github">
  <diagram id="ZwsySIJnvi0IzIzmgbFv" name="Page-1">
    <mxGraphModel dx="946" dy="608" grid="1" gridSize="10" guides="1" tooltips="1" connect="1" arrows="1" fold="1" page="1" pageScale="1" pageWidth="827" pageHeight="1169" background="none" math="0" shadow="1">
      <root>
        <mxCell id="0" />
        <mxCell id="1" parent="0" />
        <mxCell id="rOCSn74yNseZuc5mlEB1-17" value="" style="edgeStyle=orthogonalEdgeStyle;rounded=0;orthogonalLoop=1;jettySize=auto;html=1;" parent="1" source="rOCSn74yNseZuc5mlEB1-1" target="rOCSn74yNseZuc5mlEB1-4" edge="1">
          <mxGeometry relative="1" as="geometry" />
        </mxCell>
        <mxCell id="rOCSn74yNseZuc5mlEB1-1" value="1. 获取当前本地服务配置版本（初始服务版本为0）" style="rounded=1;whiteSpace=wrap;html=1;" parent="1" vertex="1">
          <mxGeometry x="190" y="120" width="120" height="60" as="geometry" />
        </mxCell>
        <mxCell id="rOCSn74yNseZuc5mlEB1-16" value="" style="edgeStyle=orthogonalEdgeStyle;rounded=0;orthogonalLoop=1;jettySize=auto;html=1;" parent="1" source="rOCSn74yNseZuc5mlEB1-2" target="rOCSn74yNseZuc5mlEB1-1" edge="1">
          <mxGeometry relative="1" as="geometry" />
        </mxCell>
        <mxCell id="rOCSn74yNseZuc5mlEB1-2" value="定时配置加载流程开始" style="ellipse;whiteSpace=wrap;html=1;" parent="1" vertex="1">
          <mxGeometry x="185" y="20" width="130" height="60" as="geometry" />
        </mxCell>
        <mxCell id="rOCSn74yNseZuc5mlEB1-18" value="" style="edgeStyle=orthogonalEdgeStyle;rounded=0;orthogonalLoop=1;jettySize=auto;html=1;" parent="1" source="rOCSn74yNseZuc5mlEB1-4" target="rOCSn74yNseZuc5mlEB1-12" edge="1">
          <mxGeometry relative="1" as="geometry" />
        </mxCell>
        <mxCell id="rOCSn74yNseZuc5mlEB1-4" value="2. 从dashboard配置管理后台接口获取当前服务配置版本" style="rounded=1;whiteSpace=wrap;html=1;" parent="1" vertex="1">
          <mxGeometry x="190" y="220" width="120" height="60" as="geometry" />
        </mxCell>
        <mxCell id="rOCSn74yNseZuc5mlEB1-30" style="edgeStyle=orthogonalEdgeStyle;rounded=0;orthogonalLoop=1;jettySize=auto;html=1;entryX=0.5;entryY=0;entryDx=0;entryDy=0;" parent="1" source="rOCSn74yNseZuc5mlEB1-5" target="rOCSn74yNseZuc5mlEB1-14" edge="1">
          <mxGeometry relative="1" as="geometry" />
        </mxCell>
        <mxCell id="rOCSn74yNseZuc5mlEB1-31" style="edgeStyle=orthogonalEdgeStyle;rounded=0;orthogonalLoop=1;jettySize=auto;html=1;entryX=0;entryY=0.5;entryDx=0;entryDy=0;" parent="1" source="rOCSn74yNseZuc5mlEB1-5" target="rOCSn74yNseZuc5mlEB1-6" edge="1">
          <mxGeometry relative="1" as="geometry">
            <Array as="points">
              <mxPoint x="380" y="580" />
              <mxPoint x="380" y="316" />
            </Array>
          </mxGeometry>
        </mxCell>
        <mxCell id="rOCSn74yNseZuc5mlEB1-5" value="本地和接口配置服务版本是否一致" style="rhombus;whiteSpace=wrap;html=1;" parent="1" vertex="1">
          <mxGeometry x="197.5" y="535" width="105" height="90" as="geometry" />
        </mxCell>
        <mxCell id="rOCSn74yNseZuc5mlEB1-33" value="" style="edgeStyle=orthogonalEdgeStyle;rounded=0;orthogonalLoop=1;jettySize=auto;html=1;" parent="1" source="rOCSn74yNseZuc5mlEB1-6" target="rOCSn74yNseZuc5mlEB1-13" edge="1">
          <mxGeometry relative="1" as="geometry" />
        </mxCell>
        <mxCell id="rOCSn74yNseZuc5mlEB1-6" value="3.从dashboard配置管理后台接口获取当前配置文件数据" style="rounded=1;whiteSpace=wrap;html=1;" parent="1" vertex="1">
          <mxGeometry x="566.5" y="286" width="120" height="60" as="geometry" />
        </mxCell>
        <mxCell id="rOCSn74yNseZuc5mlEB1-7" value="end" style="strokeWidth=1;html=1;shape=mxgraph.flowchart.terminator;whiteSpace=wrap;" parent="1" vertex="1">
          <mxGeometry x="200" y="1099" width="100" height="60" as="geometry" />
        </mxCell>
        <mxCell id="rOCSn74yNseZuc5mlEB1-48" value="" style="edgeStyle=orthogonalEdgeStyle;rounded=0;orthogonalLoop=1;jettySize=auto;html=1;" parent="1" source="rOCSn74yNseZuc5mlEB1-9" target="rOCSn74yNseZuc5mlEB1-11" edge="1">
          <mxGeometry relative="1" as="geometry" />
        </mxCell>
        <mxCell id="rOCSn74yNseZuc5mlEB1-9" value="4.从本地获取文件元数据信息(map&amp;lt;本地文件地址&amp;gt;版本，如果没有版本为0)" style="rounded=1;whiteSpace=wrap;html=1;strokeWidth=1;" parent="1" vertex="1">
          <mxGeometry x="566.5" y="492" width="120" height="60" as="geometry" />
        </mxCell>
        <mxCell id="rOCSn74yNseZuc5mlEB1-46" value="" style="edgeStyle=orthogonalEdgeStyle;rounded=0;orthogonalLoop=1;jettySize=auto;html=1;" parent="1" source="rOCSn74yNseZuc5mlEB1-53" target="rOCSn74yNseZuc5mlEB1-26" edge="1">
          <mxGeometry relative="1" as="geometry" />
        </mxCell>
        <mxCell id="rOCSn74yNseZuc5mlEB1-10" value="7.处理用户对应配置回调流程" style="rounded=1;whiteSpace=wrap;html=1;strokeWidth=1;" parent="1" vertex="1">
          <mxGeometry x="190" y="820" width="120" height="60" as="geometry" />
        </mxCell>
        <mxCell id="rOCSn74yNseZuc5mlEB1-49" value="" style="edgeStyle=orthogonalEdgeStyle;rounded=0;orthogonalLoop=1;jettySize=auto;html=1;" parent="1" source="rOCSn74yNseZuc5mlEB1-11" target="rOCSn74yNseZuc5mlEB1-15" edge="1">
          <mxGeometry relative="1" as="geometry" />
        </mxCell>
        <mxCell id="rOCSn74yNseZuc5mlEB1-50" style="edgeStyle=orthogonalEdgeStyle;rounded=0;orthogonalLoop=1;jettySize=auto;html=1;entryX=1;entryY=0.25;entryDx=0;entryDy=0;exitX=0;exitY=0.5;exitDx=0;exitDy=0;" parent="1" source="rOCSn74yNseZuc5mlEB1-11" target="rOCSn74yNseZuc5mlEB1-14" edge="1">
          <mxGeometry relative="1" as="geometry">
            <Array as="points">
              <mxPoint x="559" y="670" />
              <mxPoint x="435" y="670" />
              <mxPoint x="435" y="727" />
            </Array>
          </mxGeometry>
        </mxCell>
        <mxCell id="rOCSn74yNseZuc5mlEB1-11" value="本地文件版本和接口配置文件版本是否一致" style="rhombus;whiteSpace=wrap;html=1;" parent="1" vertex="1">
          <mxGeometry x="559" y="590" width="135" height="90" as="geometry" />
        </mxCell>
        <mxCell id="rOCSn74yNseZuc5mlEB1-20" style="edgeStyle=orthogonalEdgeStyle;rounded=0;orthogonalLoop=1;jettySize=auto;html=1;entryX=0;entryY=0.5;entryDx=0;entryDy=0;" parent="1" source="rOCSn74yNseZuc5mlEB1-12" target="rOCSn74yNseZuc5mlEB1-26" edge="1">
          <mxGeometry relative="1" as="geometry">
            <Array as="points">
              <mxPoint x="160" y="360" />
              <mxPoint x="160" y="1029" />
            </Array>
          </mxGeometry>
        </mxCell>
        <mxCell id="rOCSn74yNseZuc5mlEB1-22" value="" style="edgeStyle=orthogonalEdgeStyle;rounded=0;orthogonalLoop=1;jettySize=auto;html=1;" parent="1" source="rOCSn74yNseZuc5mlEB1-12" target="rOCSn74yNseZuc5mlEB1-21" edge="1">
          <mxGeometry relative="1" as="geometry" />
        </mxCell>
        <mxCell id="rOCSn74yNseZuc5mlEB1-12" value="获取失败" style="rhombus;whiteSpace=wrap;html=1;" parent="1" vertex="1">
          <mxGeometry x="197.5" y="330" width="105" height="60" as="geometry" />
        </mxCell>
        <mxCell id="rOCSn74yNseZuc5mlEB1-37" style="edgeStyle=orthogonalEdgeStyle;rounded=0;orthogonalLoop=1;jettySize=auto;html=1;entryX=0.75;entryY=0;entryDx=0;entryDy=0;" parent="1" source="rOCSn74yNseZuc5mlEB1-13" target="rOCSn74yNseZuc5mlEB1-14" edge="1">
          <mxGeometry relative="1" as="geometry">
            <Array as="points">
              <mxPoint x="500" y="406" />
              <mxPoint x="500" y="630" />
              <mxPoint x="280" y="630" />
            </Array>
          </mxGeometry>
        </mxCell>
        <mxCell id="rOCSn74yNseZuc5mlEB1-40" value="" style="edgeStyle=orthogonalEdgeStyle;rounded=0;orthogonalLoop=1;jettySize=auto;html=1;" parent="1" source="rOCSn74yNseZuc5mlEB1-13" target="rOCSn74yNseZuc5mlEB1-9" edge="1">
          <mxGeometry relative="1" as="geometry" />
        </mxCell>
        <mxCell id="rOCSn74yNseZuc5mlEB1-13" value="获取失败" style="rhombus;whiteSpace=wrap;html=1;" parent="1" vertex="1">
          <mxGeometry x="574" y="376" width="105" height="60" as="geometry" />
        </mxCell>
        <mxCell id="rOCSn74yNseZuc5mlEB1-43" value="" style="edgeStyle=orthogonalEdgeStyle;rounded=0;orthogonalLoop=1;jettySize=auto;html=1;" parent="1" source="rOCSn74yNseZuc5mlEB1-14" target="rOCSn74yNseZuc5mlEB1-10" edge="1">
          <mxGeometry relative="1" as="geometry" />
        </mxCell>
        <mxCell id="rOCSn74yNseZuc5mlEB1-14" value="&lt;span&gt;6. 加载本地配置&lt;/span&gt;" style="rounded=1;whiteSpace=wrap;html=1;strokeWidth=1;" parent="1" vertex="1">
          <mxGeometry x="190" y="712" width="120" height="60" as="geometry" />
        </mxCell>
        <mxCell id="rOCSn74yNseZuc5mlEB1-45" style="edgeStyle=orthogonalEdgeStyle;rounded=0;orthogonalLoop=1;jettySize=auto;html=1;entryX=1;entryY=0.5;entryDx=0;entryDy=0;" parent="1" source="rOCSn74yNseZuc5mlEB1-15" target="rOCSn74yNseZuc5mlEB1-14" edge="1">
          <mxGeometry relative="1" as="geometry" />
        </mxCell>
        <mxCell id="rOCSn74yNseZuc5mlEB1-15" value="5.写本地配置和更新本地文件元数据信息" style="rounded=1;whiteSpace=wrap;html=1;strokeWidth=1;" parent="1" vertex="1">
          <mxGeometry x="566.5" y="712" width="120" height="60" as="geometry" />
        </mxCell>
        <mxCell id="rOCSn74yNseZuc5mlEB1-23" value="" style="edgeStyle=orthogonalEdgeStyle;rounded=0;orthogonalLoop=1;jettySize=auto;html=1;" parent="1" source="rOCSn74yNseZuc5mlEB1-21" target="rOCSn74yNseZuc5mlEB1-5" edge="1">
          <mxGeometry relative="1" as="geometry" />
        </mxCell>
        <mxCell id="rOCSn74yNseZuc5mlEB1-21" value="从本地内存中获取服务版本" style="whiteSpace=wrap;html=1;rounded=1;strokeWidth=1;" parent="1" vertex="1">
          <mxGeometry x="190" y="430" width="120" height="60" as="geometry" />
        </mxCell>
        <mxCell id="rOCSn74yNseZuc5mlEB1-24" value="失败" style="text;html=1;align=center;verticalAlign=middle;resizable=0;points=[];autosize=1;" parent="1" vertex="1">
          <mxGeometry x="150" y="340" width="40" height="20" as="geometry" />
        </mxCell>
        <mxCell id="rOCSn74yNseZuc5mlEB1-25" value="成功" style="text;html=1;align=center;verticalAlign=middle;resizable=0;points=[];autosize=1;" parent="1" vertex="1">
          <mxGeometry x="250" y="400" width="40" height="20" as="geometry" />
        </mxCell>
        <mxCell id="rOCSn74yNseZuc5mlEB1-47" value="" style="edgeStyle=orthogonalEdgeStyle;rounded=0;orthogonalLoop=1;jettySize=auto;html=1;" parent="1" source="rOCSn74yNseZuc5mlEB1-26" target="rOCSn74yNseZuc5mlEB1-7" edge="1">
          <mxGeometry relative="1" as="geometry" />
        </mxCell>
        <mxCell id="rOCSn74yNseZuc5mlEB1-26" value="8.上报本地配置和更新信息给dashboard上报接口" style="rounded=1;whiteSpace=wrap;html=1;strokeWidth=1;" parent="1" vertex="1">
          <mxGeometry x="190" y="999" width="120" height="60" as="geometry" />
        </mxCell>
        <mxCell id="rOCSn74yNseZuc5mlEB1-29" value="是" style="text;html=1;align=center;verticalAlign=middle;resizable=0;points=[];autosize=1;" parent="1" vertex="1">
          <mxGeometry x="220" y="652" width="30" height="20" as="geometry" />
        </mxCell>
        <mxCell id="rOCSn74yNseZuc5mlEB1-32" value="否" style="text;html=1;align=center;verticalAlign=middle;resizable=0;points=[];autosize=1;" parent="1" vertex="1">
          <mxGeometry x="320" y="552" width="30" height="20" as="geometry" />
        </mxCell>
        <mxCell id="rOCSn74yNseZuc5mlEB1-38" value="失败" style="text;html=1;align=center;verticalAlign=middle;resizable=0;points=[];autosize=1;" parent="1" vertex="1">
          <mxGeometry x="520" y="380" width="40" height="20" as="geometry" />
        </mxCell>
        <mxCell id="rOCSn74yNseZuc5mlEB1-41" value="成功" style="text;html=1;align=center;verticalAlign=middle;resizable=0;points=[];autosize=1;" parent="1" vertex="1">
          <mxGeometry x="629" y="446" width="40" height="20" as="geometry" />
        </mxCell>
        <mxCell id="rOCSn74yNseZuc5mlEB1-51" value="是" style="text;html=1;align=center;verticalAlign=middle;resizable=0;points=[];autosize=1;" parent="1" vertex="1">
          <mxGeometry x="505" y="670" width="30" height="20" as="geometry" />
        </mxCell>
        <mxCell id="rOCSn74yNseZuc5mlEB1-52" value="否" style="text;html=1;align=center;verticalAlign=middle;resizable=0;points=[];autosize=1;" parent="1" vertex="1">
          <mxGeometry x="645" y="680" width="30" height="20" as="geometry" />
        </mxCell>
        <mxCell id="rOCSn74yNseZuc5mlEB1-56" style="edgeStyle=orthogonalEdgeStyle;rounded=0;orthogonalLoop=1;jettySize=auto;html=1;entryX=1;entryY=0.75;entryDx=0;entryDy=0;exitX=0.952;exitY=0.5;exitDx=0;exitDy=0;exitPerimeter=0;" parent="1" source="rOCSn74yNseZuc5mlEB1-53" target="rOCSn74yNseZuc5mlEB1-14" edge="1">
          <mxGeometry relative="1" as="geometry">
            <Array as="points">
              <mxPoint x="360" y="935" />
              <mxPoint x="360" y="757" />
            </Array>
          </mxGeometry>
        </mxCell>
        <mxCell id="rOCSn74yNseZuc5mlEB1-53" value="是否还有conf加载" style="rhombus;whiteSpace=wrap;html=1;rounded=1;strokeWidth=1;" parent="1" vertex="1">
          <mxGeometry x="172.5" y="910" width="155" height="50" as="geometry" />
        </mxCell>
        <mxCell id="rOCSn74yNseZuc5mlEB1-54" value="" style="edgeStyle=orthogonalEdgeStyle;rounded=0;orthogonalLoop=1;jettySize=auto;html=1;" parent="1" source="rOCSn74yNseZuc5mlEB1-10" target="rOCSn74yNseZuc5mlEB1-53" edge="1">
          <mxGeometry relative="1" as="geometry">
            <mxPoint x="250" y="880" as="sourcePoint" />
            <mxPoint x="250" y="999" as="targetPoint" />
          </mxGeometry>
        </mxCell>
        <mxCell id="rOCSn74yNseZuc5mlEB1-57" value="是" style="text;html=1;align=center;verticalAlign=middle;resizable=0;points=[];autosize=1;" parent="1" vertex="1">
          <mxGeometry x="325" y="910" width="30" height="20" as="geometry" />
        </mxCell>
        <mxCell id="rOCSn74yNseZuc5mlEB1-59" value="否" style="text;html=1;align=center;verticalAlign=middle;resizable=0;points=[];autosize=1;" parent="1" vertex="1">
          <mxGeometry x="255" y="970" width="30" height="20" as="geometry" />
        </mxCell>
      </root>
    </mxGraphModel>
  </diagram>
</mxfile>
